HIERARCHY
ROOT Hips
{
  OFFSET 13.6774 106.653 -34.4427
  CHANNELS 6 Xposition Yposition Zposition Zrotation Xrotation Yrotation
  JOINT ToSpine
  {
    OFFSET -2.69724 7.43032 -0.144315
    CHANNELS 3 Zrotation Xrotation Yrotation
    JOINT Spine
    {
      OFFSET -0.0310711 10.7595 1.96963
      CHANNELS 3 Zrotation Xrotation Yrotation
      JOINT Spine1
      {
        OFFSET 19.9056 3.91189 0.764692
        CHANNELS 3 Zrotation Xrotation Yrotation
        JOINT Neck
        {
          OFFSET 25.9749 7.03908 -0.130764
          CHANNELS 3 Zrotation Xrotation Yrotation
          JOINT Head
          {
            OFFSET 9.52751 0.295786 -0.907742
            CHANNELS 3 Zrotation Xrotation Yrotation
            End Site
            {
              OFFSET 16.4037 0.713936 2.7358
            }
          }
        }
        JOINT LeftShoulder
        {
          OFFSET 17.7449 4.33886 11.7777
          CHANNELS 3 Zrotation Xrotation Yrotation
          JOINT LeftArm
          {
            OFFSET 0.911315 1.27913 9.80584
            CHANNELS 3 Zrotation Xrotation Yrotation
            JOINT LeftForeArm
            {
              OFFSET 28.6126 1.18197 -3.53199
              CHANNELS 3 Zrotation Xrotation Yrotation
              JOINT LeftHand
              {
                OFFSET 27.5088 0.0218783 0.327423
                CHANNELS 3 Zrotation Xrotation Yrotation
                End Site
                {
                  OFFSET 18.6038 -0.000155887 0.382096
                }
              }
            }
          }
        }
        JOINT RightShoulder
        {
          OFFSET 17.1009 2.89543 -12.2328
          CHANNELS 3 Zrotation Xrotation Yrotation
          JOINT RightArm
          {
            OFFSET 1.4228 0.178766 -10.211
            CHANNELS 3 Zrotation Xrotation Yrotation
            JOINT RightForeArm
            {
              OFFSET 28.733 1.87905 2.64907
              CHANNELS 3 Zrotation Xrotation Yrotation
              JOINT RightHand
              {
                OFFSET 27.4588 0.290562 -0.101845
                CHANNELS 3 Zrotation Xrotation Yrotation
                End Site
                {
                  OFFSET 17.8396 -0.255518 -0.000602873
                }
              }
            }
          }
        }
      }
    }
  }
  JOINT LeftUpLeg
  {
    OFFSET -5.61296 -2.22332 -10.2353
    CHANNELS 3 Zrotation Xrotation Yrotation
    JOINT LeftLeg
    {
      OFFSET 2.56703 -44.7417 -7.93097
      CHANNELS 3 Zrotation Xrotation Yrotation
      JOINT LeftFoot
      {
        OFFSET 3.16933 -46.5642 -3.96578
        CHANNELS 3 Zrotation Xrotation Yrotation
        JOINT LeftToeBase
        {
          OFFSET 0.346054 -6.02161 12.8035
          CHANNELS 3 Zrotation Xrotation Yrotation
          End Site
          {
            OFFSET 0.134235 -1.35082 5.13018
          }
        }
      }
    }
  }
  JOINT RightUpLeg
  {
    OFFSET -5.7928 -1.72406 10.6446
    CHANNELS 3 Zrotation Xrotation Yrotation
    JOINT RightLeg
    {
      OFFSET -2.57161 -44.7178 -7.85259
      CHANNELS 3 Zrotation Xrotation Yrotation
      JOINT RightFoot
      {
        OFFSET -3.10148 -46.5936 -4.03391
        CHANNELS 3 Zrotation Xrotation Yrotation
        JOINT RightToeBase
        {
          OFFSET -0.0828122 -6.13587 12.8035
          CHANNELS 3 Zrotation Xrotation Yrotation
          End Site
          {
            OFFSET -0.131328 -1.35082 5.13018
          }
        }
      }
    }
  }
}
MOTION
Frames: 19
Frame Time: 0.03333333333333333
0.0000 93.1000 0.0000 79.0874 8.2161 65.6067 -70.6658 0.6487 88.6601 83.7648 67.0330 -8.1816 -5.6626 9.0128 22.1154 -113.5350 10.6824 132.9183 -152.7670 66.3678 -178.6548 -0.9236 -15.8811 -25.6172 -47.6650 33.8795 -128.3245 12.7999 2.1549 -81.1894 0.2081 -0.1766 1.0822 -0.1537 2.3171 40.8511 -88.0122 -9.1439 64.5933 -15.4890 15.9130 40.4651 -0.6047 1.4593 1.5199 -20.0755 60.5467 69.7110 1.9004 21.8296 3.5809 -5.9956 -1.6869 -0.2628 0.3404 1.2314 -11.2315 10.8635 -46.0092 141.1091 -3.0558 30.5234 -26.0987 95.9570 -9.6394 -5.0153 31.2308 15.4601 -38.9676 
0.0000 93.1000 0.0000 79.9177 9.0657 66.4705 -70.7364 -0.2595 88.1675 93.1599 65.1510 -14.4838 -5.4954 9.1951 19.7866 -117.2297 9.7248 135.7242 -153.5473 64.0293 179.0167 -0.5627 -17.5705 -27.4055 -50.7573 29.9010 -131.2215 10.6504 1.6862 -79.2855 -0.1547 0.0387 -0.5749 -1.3726 1.9535 39.9131 -92.3455 -7.7272 63.4933 -20.2352 20.2777 43.6992 0.2940 -0.9121 -1.0378 -20.0795 61.8683 74.7832 5.0564 16.7489 -2.4871 -3.3512 -2.0524 -0.0104 0.2115 5.3324 -11.2373 18.5392 -47.0188 136.5164 -1.8160 46.5084 -22.3225 97.8857 -7.9091 -5.2723 23.8475 13.1294 -39.8860 
0.0000 93.1000 0.0000 79.9538 9.7810 66.5498 -70.7551 0.4466 88.7207 96.8843 64.3974 -19.4176 -4.9277 7.8640 19.2271 -118.3551 11.0374 135.8924 -154.8916 64.5528 -178.1585 -1.0482 -18.7002 -30.3610 -51.8870 24.7713 -133.0803 10.3427 3.0239 -74.1128 0.0279 0.4308 0.4943 -0.6583 1.8748 40.5764 -94.0178 -6.1854 61.7735 -21.3531 19.6545 45.6634 -0.0347 -0.2579 0.5532 -17.5336 62.4243 73.1057 5.2564 18.2785 -2.5491 -0.9224 -0.8178 -0.6487 -0.6768 4.3987 -13.5973 21.8731 -43.0550 136.0711 0.2028 66.3119 -21.1786 92.2990 -10.2488 -5.0537 21.1197 8.5708 -42.5075 
0.0000 93.1000 0.0000 80.0057 8.4679 65.6336 -70.9572 0.2329 88.5424 90.1136 65.0262 -15.0230 -3.2476 7.7990 20.4423 -118.9807 11.1868 137.0383 -157.9381 63.8142 -176.9738 -1.4081 -19.9209 -33.1141 -53.8845 22.7125 -134.2955 10.4546 2.5547 -71.8230 -0.0373 0.2454 -0.3725 -0.9434 1.9238 40.3500 -93.0918 -5.9266 61.9881 -23.9319 21.9034 47.1775 0.4895 -0.4325 -0.3689 -10.1342 59.5144 63.7602 2.4953 26.8584 2.5079 3.4018 -5.6372 -1.7931 -0.4340 2.6465 -9.1556 23.2660 -39.4212 132.1149 13.5041 82.4112 -32.1656 71.9962 -5.6454 -6.9694 22.7166 28.1168 -32.5909 
0.0000 93.1000 0.0000 77.9592 8.2180 64.0405 -71.1574 -0.9568 87.9735 81.8350 65.0126 -10.6745 -2.8753 8.0326 20.0446 -118.2045 10.6940 137.2601 -157.7418 63.0433 -176.3645 -3.4922 -20.8942 -33.2521 -52.7856 22.8983 -135.1733 9.7395 3.7064 -70.3691 0.5451 -1.3195 0.3810 -1.0842 2.1112 39.5132 -94.0469 -6.1123 60.3466 -25.1874 22.3495 48.8481 -0.7064 2.0024 0.9724 -10.5944 58.4470 60.8835 -0.3028 30.0089 6.7927 2.3052 -5.0016 -0.8668 -0.4449 4.8877 -8.8104 20.2820 -37.1065 125.3867 -173.5677 84.6500 139.4341 72.2190 12.1923 -17.0873 14.0960 37.0141 -8.9293 
0.0000 93.1000 0.0000 77.8070 9.1712 60.3151 -71.0064 0.8506 88.3632 77.9689 66.4659 -6.6690 -0.1091 10.3406 16.7262 -119.0621 11.1872 137.1140 -160.2573 64.6645 -171.7441 -1.7378 -20.8947 -34.5778 -52.0138 23.6293 -135.0267 9.9114 2.6127 -69.1419 -0.2579 -0.3090 -0.2759 -0.7951 1.8915 37.9620 -95.8394 -8.9623 57.8585 -27.3953 20.9060 51.0324 0.0525 -0.2759 -0.9397 -11.7014 54.5212 63.4944 -0.9087 35.1890 7.9183 4.2829 -10.4409 -1.8138 -1.5152 6.9346 -6.3703 14.2476 -32.8505 115.5133 169.2756 77.0038 164.0627 65.5998 8.8867 -14.3292 10.0923 29.9229 -10.6125 
0.0000 93.1000 0.0000 77.7052 9.0114 56.5866 -70.8267 0.0601 88.3578 74.9160 66.7772 -3.6871 0.6352 11.5749 13.3438 -120.1825 12.1925 139.0451 -162.1093 64.8321 -170.0527 -1.9500 -19.8113 -33.9346 -52.0231 27.0413 -133.1306 11.1454 3.0555 -72.2845 0.0813 0.4904 -0.1428 -0.4227 1.8157 38.8172 -97.8514 -7.5417 57.5819 -29.1147 19.9111 54.5175 0.7079 -0.3118 -0.4146 -17.2793 52.2829 67.0633 -2.1710 37.9854 4.5443 5.3276 -11.9572 -2.2114 -3.0055 6.0236 -2.0448 3.5960 -28.1903 102.6801 166.7646 76.8798 -179.3243 53.2197 4.3411 -11.0088 3.6517 24.4160 -11.3904 
0.0000 93.1000 0.0000 76.6070 9.1317 53.0863 -70.9099 -0.0897 88.2363 73.0568 67.1129 -2.5991 1.1337 13.2827 11.8503 -120.2551 13.3287 139.9293 -162.9682 65.1526 -169.5473 -1.4201 -19.1956 -33.3324 -51.0026 28.5320 -130.7971 13.6568 4.0588 -73.3750 -0.0909 -0.1739 0.1698 -0.7975 2.0655 37.9205 -99.0773 -7.6428 56.6013 -30.9793 19.1924 58.1617 0.1433 0.0375 0.1002 -20.9672 46.3250 69.2345 -1.7560 41.1662 2.6890 5.3122 -13.7541 -2.1323 -3.0041 5.7597 0.4397 -4.3008 -25.1526 90.4008 161.3875 79.4227 -173.3090 44.4124 8.0086 -9.5157 -1.8315 20.0796 -4.7146 
0.0000 93.1000 0.0000 75.2295 9.9803 48.1769 -70.9460 0.1083 88.6492 69.1109 68.3389 0.1502 1.7381 14.6433 10.0711 -121.2485 14.8766 140.3583 -163.1829 66.0977 -165.2615 -0.9696 -18.9340 -32.3217 -49.9357 28.3796 -128.8585 14.2351 4.0727 -74.1661 0.3148 -0.2412 0.2257 -0.6402 2.5368 36.9450 -99.9141 -6.8273 56.5004 -32.5847 17.1253 62.2637 -0.1907 0.5637 0.4904 -24.1134 41.0507 72.5924 -2.2846 45.0688 4.3276 5.1221 -14.9604 -2.2761 -2.9844 3.7012 1.2745 -10.9769 -21.9006 79.4464 148.6194 84.4900 -164.3227 31.9059 15.8765 -7.8314 -3.9176 5.0546 24.0320 
0.0000 93.1000 0.0000 75.4332 9.9860 42.7927 -70.8651 -0.3274 88.4780 68.2265 69.0545 0.2168 0.6361 16.0043 8.5344 -121.3039 16.0774 142.4437 -163.6424 66.2338 -164.0002 -1.2927 -18.2073 -31.9931 -50.1293 28.9627 -127.7397 14.8969 3.9874 -75.4355 0.2591 -0.6563 0.6923 -0.8466 2.7132 34.7490 -99.7986 -6.7230 57.3539 -30.5813 12.9450 66.4640 -0.8090 1.2821 1.0791 -28.1712 36.7067 77.1655 -1.9869 48.1520 5.5872 3.9744 -15.8215 -1.8612 -2.2744 1.2770 1.1316 -18.1415 -16.7494 72.7065 50.6333 86.3169 -57.4405 30.1307 14.0534 -7.8755 -8.4187 -2.8411 9.1818 
0.0000 93.1000 0.0000 76.4132 9.2913 36.9571 -70.7352 -0.8331 88.3749 68.1336 69.9467 0.4518 0.2989 17.2246 6.5631 -122.2229 17.8506 144.9663 -165.3457 66.8868 -163.3240 -2.2157 -17.1858 -31.3336 -52.1696 29.8195 -126.7049 15.6166 3.9629 -76.4302 0.2147 -1.2571 0.6066 -1.3661 2.7799 32.8460 -99.9833 -7.8603 59.5105 -27.2231 8.7167 69.4960 -0.6312 1.6515 1.2360 -33.2516 33.8562 83.8313 -2.0765 48.3768 6.7012 3.1653 -15.9459 -1.4298 -1.0313 0.5874 1.5233 -25.2451 -10.9918 67.3495 17.3420 79.6967 -16.1023 26.3502 15.9887 -8.0065 -8.2183 -19.4936 6.1784 
0.0000 93.1000 0.0000 77.6353 9.1790 32.1437 -70.5997 -0.4978 88.3433 70.1203 70.2788 -0.0313 0.3810 18.6163 3.6500 -122.2366 19.2978 146.0216 -165.7853 67.2588 -161.7982 -1.7234 -15.9659 -31.0745 -53.5581 30.4717 -125.8265 15.8427 2.7132 -78.4988 0.2295 -0.8299 0.3109 -1.0300 2.7762 31.8749 -100.9746 -6.9646 62.1128 -22.1697 5.8817 72.5400 -0.1814 1.1539 0.8682 -36.3187 30.1931 89.2050 -2.6525 47.9128 7.6993 2.6974 -16.0917 -1.9100 -1.0217 -0.3492 2.1571 -33.1771 -5.8932 61.4965 8.0967 69.3901 -1.3400 21.2522 18.6865 -6.7534 -3.8310 -34.9733 10.4852 
0.0000 93.1000 0.0000 76.7839 9.2758 28.0650 -70.6601 -0.2177 88.4043 72.1498 70.9921 0.1796 0.5920 19.4548 1.6126 -123.1704 21.9227 151.8286 -168.6087 68.1749 -158.0528 -1.5050 -16.0866 -31.0856 -55.7910 29.4738 -124.8624 17.3538 2.8348 -80.3594 0.3653 -0.7279 0.6168 -1.1086 3.4395 31.0141 -102.7083 -6.6533 64.4268 -14.7436 3.1710 75.3462 -0.1427 1.2123 0.8550 -38.7921 26.1499 93.3418 -2.4749 46.1667 6.0500 2.0945 -14.7908 -1.7401 -1.5221 -0.4441 2.2718 -39.0590 -2.9437 57.3945 6.0417 61.0913 7.6477 13.0610 21.9751 -4.8498 0.1565 -45.8262 8.9122 
0.0000 93.1000 0.0000 74.4529 10.0169 21.2696 -70.6424 1.2079 88.2063 74.2394 71.0955 -0.1499 1.2578 21.0356 1.7434 -124.1193 24.6219 154.9206 -174.8298 69.1596 -152.2418 1.3083 -16.5664 -30.2522 -57.5860 29.6387 -125.0349 19.7056 1.9667 -83.4757 -0.9426 1.8004 -2.1783 -0.7820 4.7455 29.8126 -106.1226 -6.6433 67.1791 -6.0204 0.4108 77.2058 1.2105 -3.7777 -2.6238 -39.9591 20.5966 96.9936 -2.3646 46.1213 5.3408 2.0790 -13.6102 -3.1380 0.5648 -2.0561 0.9567 -43.7802 -2.1916 56.2633 3.8537 51.9499 11.2875 10.6924 23.3019 -1.9814 -0.3247 -40.9170 14.4179 
0.0000 93.1000 0.0000 73.8671 11.3043 16.8533 -70.7818 -0.5188 88.1737 78.2418 71.8303 -3.8425 -0.4022 20.8604 -1.2714 -128.0824 27.7618 159.9771 175.9822 70.0444 -145.1785 -0.7811 -15.6186 -31.0105 -59.6806 28.6116 -125.3296 21.4624 0.6412 -86.4107 0.1514 -0.4673 0.3778 -1.3703 4.3499 28.0021 -110.8498 -8.1678 67.9757 1.0380 -0.8321 79.3806 -0.3583 0.6896 0.2096 -40.3939 17.3549 101.5972 -3.4542 46.3015 -2.1221 -2.9739 -11.5856 -0.7198 0.6432 -4.3770 2.5311 -48.3785 -1.5925 57.1561 3.2425 43.9141 6.4267 5.5589 15.3179 -0.9998 -0.1210 -30.3716 18.4497 
0.0000 93.1000 0.0000 72.7528 13.4072 13.7438 -70.7685 0.3739 88.2616 85.1188 71.2983 -8.8391 -1.3036 21.2001 -1.6105 -132.2285 31.0775 165.8858 163.9311 70.5278 -136.8499 0.2727 -15.1635 -30.3059 -61.5306 28.7334 -126.3351 22.6899 0.2309 -88.5131 -0.1811 0.4573 -0.2637 -0.9140 5.3072 27.9211 -116.0032 -9.6104 69.2199 4.4483 -1.1154 81.5326 0.3016 -0.7321 -0.3401 -39.1918 14.8781 104.0044 -5.1683 48.0068 -11.3570 -6.1705 -8.8731 -0.8990 3.4799 -8.4422 3.2415 -52.2413 -1.6194 58.0950 2.0362 35.2564 7.2426 -7.1550 11.2201 2.3104 0.3747 -34.2874 4.1933 
0.0000 93.1000 0.0000 70.7948 16.1371 11.6898 -70.8419 0.4197 88.3575 93.1430 70.9280 -14.4876 -2.3970 21.1031 -1.4907 -134.2559 33.0955 169.1733 154.9287 71.0841 -128.9891 0.7591 -14.9141 -29.3694 -62.9169 28.3025 -130.1348 22.1369 -0.0325 -89.3887 -0.3781 0.8391 -0.7683 -0.8706 5.9433 29.1346 -120.1918 -9.3863 71.4435 3.9025 -0.8224 83.2604 0.6984 -1.3556 -0.7937 -36.9944 12.7791 102.1022 -7.5958 52.8772 -22.5878 -6.3344 -8.3128 -1.2923 5.3916 -13.9411 6.9497 -52.3594 -1.4586 65.0342 3.1813 30.9771 -4.0091 -11.5752 6.0634 3.4677 -0.1911 -25.8457 -2.9996 
0.0000 93.1000 0.0000 70.7890 16.2505 10.0330 -70.8281 0.1651 88.3280 94.3545 70.5819 -14.8015 -2.5776 21.0208 -0.8391 -134.1941 34.1208 169.7398 156.2448 71.6083 -129.2122 0.1154 -14.4049 -29.1817 -64.9328 28.6728 -132.2019 22.1588 -0.2242 -90.3522 -0.1510 0.3986 -0.5057 -1.5820 6.0476 32.5152 -121.7301 -7.7019 77.8320 3.4427 -0.7529 81.3492 0.3800 -1.0126 -0.6530 -35.3244 13.1273 98.5441 -8.3438 58.2423 -20.6651 -5.2483 -11.4060 -1.5310 5.3971 -14.4039 11.3717 -50.6241 -2.3228 69.0486 1.2409 31.0184 -9.9491 -11.4769 0.6967 3.3373 -1.0567 -16.2035 2.8753 
0.0000 93.1000 0.0000 71.0242 15.1635 7.8316 -70.7689 0.3766 88.3827 93.3276 70.8081 -12.8708 -2.2922 20.9065 0.4641 -133.3973 34.1793 170.8621 160.3773 72.0415 -133.6628 0.7548 -14.1272 -28.0051 -67.4072 29.6125 -132.2109 22.1951 -1.7427 -92.5268 -0.2694 0.7764 -0.9768 -1.8051 6.4235 34.8442 -122.7916 -8.3763 83.2792 3.6725 -0.9201 78.3625 0.6617 -1.6221 -1.3777 -36.2010 16.3511 97.3524 -7.5712 60.1570 -10.2280 -2.4340 -12.7376 -2.3903 4.9829 -13.2256 11.2761 -49.6112 -4.9665 67.4114 1.0805 32.3303 -9.8477 -14.1126 -3.5370 3.7696 -1.4151 -16.3256 15.6212 
